# xmcd
#
# Track frame offsets: 
#        150
#        18460
#        38550
#        54594
#        72433
#        93065
#        115143
#        135508
#        156784
#        180990
#        202981
#        229908
#        250929
#        281161
#        300878
#        322607
#
# Disc length: 4720 seconds
#
# Revision: 2
# Processed by: cddbd v1.5.2PL0 Copyright (c) Steve Scherf et al.
# Submitted via: ExactAudioCopy v1.3
#
DISCID=c5126e10
DTITLE=CDS制作 - TEST-CD-04A【试音极品碟】
DYEAR=2011
DGENRE=stereo
TTITLE0=驼铃
TTITLE1=没有人比你更爱我
TTITLE2=情难枕
TTITLE3=几多愁
TTITLE4=老人与海
TTITLE5=月光下的凤尾竹
TTITLE6=杏花溪之恋
TTITLE7=爱的代价
TTITLE8=我终于失去了你
TTITLE9=珍惜
TTITLE10=天女散花
TTITLE11=相见在明天
TTITLE12=霸王别姬
TTITLE13=世界多美丽
TTITLE14=梦中的蝴蝶
TTITLE15=鼓王
EXTD=
EXTT0=
EXTT1=
EXTT2=
EXTT3=
EXTT4=
EXTT5=
EXTT6=
EXTT7=
EXTT8=
EXTT9=
EXTT10=
EXTT11=
EXTT12=
EXTT13=
EXTT14=
EXTT15=
PLAYORDER=
